<svg width="47" height="47" viewBox="0 0 47 47" fill="none" xmlns="http://www.w3.org/2000/svg">
<path d="M40.1169 6.88303C37.9597 4.72586 35.447 3.03202 32.6481 1.84812C29.7488 0.621738 26.6709 0 23.5 0C20.3289 0 17.251 0.621738 14.3516 1.84812C11.5528 3.03186 9.04003 4.72586 6.88294 6.88303C4.72577 9.04012 3.03186 11.5529 1.84804 14.3517C0.621737 17.2511 0 20.329 0 23.5C0 26.671 0.621737 29.7489 1.84812 32.6483C3.03186 35.4471 4.72585 37.9599 6.88302 40.117C9.04011 42.2741 11.5529 43.9681 14.3517 45.1519C17.2511 46.3783 20.329 47 23.5 47C26.671 47 29.749 46.3783 32.6483 45.1519C35.4471 43.9681 37.96 42.2741 40.1171 40.117C42.2742 37.9599 43.9681 35.4471 45.1519 32.6483C46.3782 29.7489 47 26.671 47 23.5C47 20.329 46.3783 17.2511 45.1519 14.3516C43.968 11.5529 42.274 9.04012 40.1169 6.88303ZM23.5 43.6104C12.3933 43.6104 3.38957 34.6066 3.38957 23.5C3.38957 12.3933 12.3933 3.38957 23.5 3.38957C34.6066 3.38957 43.6104 12.3933 43.6104 23.5C43.6104 34.6066 34.6066 43.6104 23.5 43.6104Z" fill="white"/>
<path d="M23.5 47C20.329 47 17.2511 46.3782 14.3517 45.1519C11.5529 43.968 9.04011 42.274 6.88309 40.1171C4.7259 37.9599 3.03199 35.4471 1.84818 32.6483C0.6218 29.749 0 26.671 0 23.5C0 20.329 0.6218 17.2511 1.8481 14.3517C3.03191 11.553 4.7259 9.04011 6.88301 6.88309C9.04003 4.72598 11.5528 3.03199 14.3516 1.84818C17.2511 0.6218 20.329 0 23.5 0C26.6711 0 29.749 0.6218 32.6483 1.8481C35.4473 3.03199 37.96 4.72598 40.1171 6.88301C42.2743 9.04019 43.9682 11.5531 45.1519 14.3516C46.3782 17.251 47 20.329 47 23.5C47 26.6709 46.3782 29.7488 45.1519 32.6482C43.9683 35.4469 42.2742 37.9597 40.1171 40.117C37.9599 42.2742 35.4471 43.9681 32.6483 45.1518C29.749 46.3782 26.671 47 23.5 47ZM23.5 0.0789888C20.3396 0.0789888 17.2721 0.698656 14.3824 1.92085C11.593 3.10071 9.08861 4.78901 6.93885 6.93885C4.78893 9.08869 3.10071 11.5931 1.92085 14.3824C0.698656 17.2721 0.0789888 20.3396 0.0789888 23.5C0.0789888 26.6605 0.698656 29.7281 1.92085 32.6176C3.10063 35.4069 4.78893 37.9114 6.93885 40.0612C9.08869 42.211 11.593 43.8993 14.3824 45.0791C17.272 46.3013 20.3395 46.921 23.5 46.921C26.6605 46.921 29.7281 46.3013 32.6176 45.0791C35.4069 43.8993 37.9114 42.2111 40.0612 40.0612C42.2112 37.9112 43.8995 35.4068 45.0791 32.6176C46.3013 29.7279 46.921 26.6603 46.921 23.5C46.921 20.3396 46.3013 17.272 45.0791 14.3824C43.8994 11.5932 42.2111 9.08885 40.0612 6.93885C37.9114 4.78909 35.4071 3.10078 32.6176 1.92085C29.728 0.698656 26.6604 0.0789888 23.5 0.0789888ZM23.5 43.6162C18.1268 43.6162 13.0752 41.5238 9.27574 37.7243C5.47629 33.9248 3.38388 28.8732 3.38388 23.5C3.38388 18.1268 5.47629 13.0752 9.27574 9.27574C13.0752 5.47629 18.1268 3.38388 23.5 3.38388C28.8732 3.38388 33.9249 5.47629 37.7243 9.27574C41.5238 13.0752 43.6162 18.1268 43.6162 23.5C43.6162 28.8732 41.5238 33.9249 37.7243 37.7243C33.9248 41.5237 28.8732 43.6162 23.5 43.6162ZM23.5 3.46287C18.1479 3.46287 13.1162 5.54707 9.33158 9.33158C5.54699 13.1161 3.46287 18.1479 3.46287 23.5C3.46287 28.8522 5.54707 33.8839 9.33158 37.6684C13.1162 41.4529 18.1479 43.5372 23.5 43.5372C28.8522 43.5372 33.8839 41.4529 37.6684 37.6684C41.4529 33.8839 43.5372 28.8522 43.5372 23.5C43.5372 18.1479 41.4529 13.1162 37.6684 9.33158C33.8839 5.54707 28.8522 3.46287 23.5 3.46287Z" fill="white"/>
<path d="M21 18.8932L25.3235 23.5L21 28.1068L21.8383 29L27 23.5L21.8383 18L21 18.8932Z" fill="white"/>
</svg>
